<svg xmlns="http://www.w3.org/2000/svg" viewBox="0 0 214.81 214.81"><title>logo-frontendmentor-SVG</title><g id="Camada_2" data-name="Camada 2"><g id="Camada_1-2" data-name="Camada 1"><circle cx="107.4" cy="107.4" r="107.4" style="fill:#faffff"/><path d="M107.4,137.25a6.15,6.15,0,0,1-6.14-6.15V56a6.14,6.14,0,0,1,12.28,0V131.1A6.15,6.15,0,0,1,107.4,137.25Z" style="fill:#6cdbf5"/><path d="M118.6,169.73c-43.32,0-71.67-33.29-76.68-66.29a6.14,6.14,0,0,1,12.14-1.84c4.43,29.14,30.4,58.5,70,55.65a6.21,6.21,0,0,1,6.57,5.67A6.14,6.14,0,0,1,125,169.5Q121.74,169.73,118.6,169.73Z" style="fill:#3260d4"/><path d="M163.19,120.19a6.08,6.08,0,0,1-3.08-.84l-30.88-18a6.13,6.13,0,0,1,0-10.61l30.88-18a6.14,6.14,0,1,1,6.18,10.61L144.52,96.07l21.77,12.67a6.14,6.14,0,0,1-3.1,11.45Z" style="fill:#6cdbf5"/></g></g></svg>